<?xml version="1.0" encoding="iso-8859-1"?>
<!-- Generator: Adobe Illustrator 16.0.4, SVG Export Plug-In . SVG Version: 6.00 Build 0)  -->
<!DOCTYPE svg PUBLIC "-//W3C//DTD SVG 1.1//EN" "http://www.w3.org/Graphics/SVG/1.1/DTD/svg11.dtd">
<svg version="1.1" id="Capa_1" xmlns="http://www.w3.org/2000/svg" xmlns:xlink="http://www.w3.org/1999/xlink" x="0px" y="0px"
	 width="40px" height="40px" viewBox="0 0 40 40" style="enable-background:new 0 0 40 40;" xml:space="preserve">
<g id="_x32_40._Power">
	<g>
		<path d="M20,0C8.954,0,0,8.954,0,20c0,11.045,8.954,20,20,20c11.045,0,20-8.955,20-20C40,8.954,31.045,0,20,0z M20,36
			c-8.837,0-16-7.164-16-16c0-8.837,7.163-16,16-16c8.836,0,16,7.163,16,16C36,28.836,28.836,36,20,36z M26,18.008l-5.176,0.021
			c-0.552,0.002-0.756-0.371-0.455-0.835l5.54-8.518c0.603-0.926,0.457-1.043-0.323-0.262L13.414,20.585
			c-0.781,0.781-0.519,1.411,0.586,1.406l4.175-0.017c1.104-0.004,1.512,0.743,0.91,1.669l-5.54,8.518
			c-0.301,0.463-0.228,0.522,0.164,0.134l8.699-8.638c0.392-0.389,1.023-1.023,1.411-1.417l2.776-2.816
			C27.371,18.638,27.104,18.003,26,18.008z"/>
	</g>
</g>
<g>
</g>
<g>
</g>
<g>
</g>
<g>
</g>
<g>
</g>
<g>
</g>
<g>
</g>
<g>
</g>
<g>
</g>
<g>
</g>
<g>
</g>
<g>
</g>
<g>
</g>
<g>
</g>
<g>
</g>
</svg>
