<svg xmlns="http://www.w3.org/2000/svg" width="67.135px" height="120px" viewBox="0 0 67.135 120">
<g>
	<g>
		<polygon fill="#B48FC2" points="0,47.009 0,47.021 17.863,59.529 67.135,25.03 67.135,0 		"/>
		<polygon fill="#333333" points="0,47.021 67.135,94.028 67.135,119.058 0,72.05 		"/>
		<g>
			<polygon fill="#7C4C96" points="0.061,46.967 0,47.009 0,72.038 17.932,59.481 			"/>
		</g>
	</g>
	<g>
		<path fill="#FFFFFF" d="M23.269,49.491l-7.909-6.953l1.729-1.222l5.323,4.854l-2.533-6.827l2.009-1.42l5.596,4.806l-2.847-6.748
			l1.7-1.204l3.882,9.803l-1.792,1.265l-6.086-5.075l2.761,7.428L23.269,49.491z"/>
		<path fill="#FFFFFF" d="M29.848,38.646c-0.601-0.854-0.979-1.659-1.133-2.419c-0.11-0.559-0.122-1.124-0.032-1.696
			c0.09-0.569,0.271-1.076,0.548-1.517c0.366-0.588,0.889-1.123,1.568-1.606c1.233-0.87,2.49-1.186,3.771-0.944
			c1.28,0.242,2.401,1.045,3.364,2.405c0.955,1.352,1.334,2.668,1.139,3.947c-0.195,1.282-0.907,2.357-2.135,3.227
			c-1.244,0.88-2.501,1.198-3.771,0.958C31.896,40.763,30.789,39.977,29.848,38.646z M31.546,37.356
			c0.672,0.948,1.396,1.513,2.18,1.691c0.784,0.18,1.514,0.031,2.186-0.443c0.673-0.477,1.053-1.111,1.144-1.901
			c0.088-0.789-0.209-1.668-0.896-2.639c-0.678-0.959-1.393-1.526-2.147-1.699c-0.753-0.176-1.476-0.017-2.174,0.477
			c-0.695,0.491-1.089,1.127-1.176,1.905C30.57,35.523,30.867,36.396,31.546,37.356z"/>
		<path fill="#FFFFFF" d="M44.082,34.776l-4.913-6.948l-2.482,1.757l-1-1.416l6.647-4.699l0.999,1.415l-2.474,1.75l4.912,6.95
			L44.082,34.776z"/>
		<path fill="#FFFFFF" d="M43.418,22.701l3.088-2.18c0.696-0.494,1.265-0.816,1.705-0.968c0.593-0.202,1.193-0.242,1.803-0.121
			c0.613,0.122,1.199,0.387,1.758,0.792c0.562,0.405,1.118,1,1.673,1.784c0.486,0.688,0.82,1.342,1.002,1.961
			c0.221,0.755,0.271,1.461,0.148,2.11c-0.092,0.492-0.33,0.995-0.716,1.507c-0.288,0.383-0.745,0.793-1.369,1.234l-3.178,2.246
			L43.418,22.701z M46.107,22.924l3.916,5.539l1.262-0.891c0.473-0.334,0.793-0.601,0.966-0.803c0.224-0.261,0.37-0.538,0.435-0.829
			s0.022-0.665-0.129-1.119c-0.151-0.456-0.453-1.007-0.91-1.654c-0.457-0.646-0.866-1.102-1.225-1.366
			c-0.359-0.267-0.71-0.422-1.053-0.474c-0.343-0.048-0.695,0.006-1.059,0.161c-0.275,0.111-0.757,0.412-1.445,0.899L46.107,22.924z
			"/>
	</g>
	<g>
		<g>
			<g>
				<rect x="37.02" y="87.855" fill="#FFFFFF" width="0" height="0.004"/>
				<polygon fill="#FFFFFF" points="37.02,87.855 37.02,87.855 37.02,87.855 				"/>
				<polygon fill="#FFFFFF" points="37.02,87.855 37.02,87.855 37.02,87.855 				"/>
				<polygon fill="#FFFFFF" points="35.517,82.184 35.516,82.183 33.35,85.294 33.35,85.294 33.35,85.294 36.463,87.462 				"/>
				<polygon fill="#FFFFFF" points="35.516,82.183 35.517,82.184 35.525,82.183 35.525,82.183 35.516,82.183 				"/>
				<polygon fill="#FFFFFF" points="35.516,82.183 35.057,79.518 35.057,79.512 32.401,79.987 32.879,82.642 				"/>
				<polygon fill="#FFFFFF" points="36.44,87.453 38.607,84.335 35.477,82.155 36.437,87.453 36.44,87.453 				"/>
				<polygon fill="#FFFFFF" points="36.44,87.453 36.441,87.455 36.917,90.105 39.571,89.633 39.094,86.977 38.551,87.073 				"/>
				<polygon fill="#FFFFFF" points="35.525,82.183 40.83,81.227 37.698,79.046 35.057,79.512 35.057,79.518 35.516,82.183 				"/>
				<g>
					<polygon fill="#FFFFFF" points="36.44,87.453 38.551,87.073 39.094,86.977 38.607,84.335 36.44,87.453 36.44,87.453 
						36.44,87.453 36.44,87.453 36.437,87.453 31.141,88.396 34.274,90.575 36.916,90.105 36.441,87.455 36.44,87.453 					"/>
					<polygon fill="#FFFFFF" points="35.516,82.183 32.879,82.642 32.879,82.642 33.35,85.294 35.516,82.183 					"/>
				</g>
			</g>
			<g>
				<rect x="29.434" y="82.575" fill="#FFFFFF" width="0" height="0.004"/>
				<polygon fill="#FFFFFF" points="29.434,82.575 29.434,82.575 29.434,82.575 				"/>
				<polygon fill="#FFFFFF" points="29.434,82.575 29.434,82.575 29.434,82.575 				"/>
				<polygon fill="#FFFFFF" points="27.929,76.901 27.928,76.901 25.762,80.013 25.762,80.013 25.762,80.013 28.876,82.18 				"/>
				<polygon fill="#FFFFFF" points="27.928,76.901 27.929,76.901 27.939,76.901 27.938,76.9 27.928,76.901 				"/>
				<polygon fill="#FFFFFF" points="27.928,76.901 27.47,74.238 27.47,74.231 24.814,74.706 25.293,77.36 				"/>
				<polygon fill="#FFFFFF" points="27.938,76.9 33.244,75.944 30.111,73.766 27.47,74.231 27.47,74.238 27.928,76.901 				"/>
				<polygon fill="#FFFFFF" points="28.854,82.172 31.02,79.054 27.891,76.876 28.851,82.172 28.854,82.172 				"/>
				<polygon fill="#FFFFFF" points="28.854,82.172 28.854,82.176 29.329,84.824 31.984,84.351 31.507,81.694 30.965,81.793 				"/>
				<g>
					<polygon fill="#FFFFFF" points="28.854,82.172 30.965,81.793 31.507,81.694 31.02,79.054 28.854,82.172 28.854,82.172 
						28.854,82.172 28.854,82.172 28.851,82.172 23.555,83.115 26.688,85.296 29.329,84.825 28.854,82.176 28.854,82.172 					"/>
					<polygon fill="#FFFFFF" points="27.928,76.901 25.293,77.36 25.293,77.36 25.762,80.013 27.928,76.901 					"/>
				</g>
			</g>
			<g>
				<g>
					<rect x="18.113" y="74.699" fill="#FFFFFF" width="0" height="0.004"/>
					<polygon fill="#FFFFFF" points="18.115,74.7 18.115,74.7 18.115,74.7 					"/>
					<polygon fill="#FFFFFF" points="18.115,74.7 18.115,74.7 18.115,74.7 					"/>
					<g>
						<polygon fill="#FFFFFF" points="18.115,74.7 20.286,71.587 23.416,73.767 18.116,74.704 18.115,74.7 						"/>
					</g>
					<polygon fill="#FFFFFF" points="23.957,74.143 23.957,74.142 23.956,74.133 23.956,74.133 23.957,74.143 					"/>
					<g>
						<polygon fill="#FFFFFF" points="18.115,74.7 18.111,74.702 15.461,75.176 14.983,72.522 17.641,72.047 17.737,72.591 						
							"/>
					</g>
					<g>
						<polygon fill="#FFFFFF" points="20.782,74.232 20.286,71.587 22.958,71.095 23.055,71.633 23.438,73.761 						"/>
					</g>
					<g>
						<polygon fill="#FFFFFF" points="18.115,74.7 17.737,72.591 17.641,72.047 20.286,71.587 18.115,74.7 18.115,74.7 18.115,74.7 
							18.115,74.7 18.116,74.704 19.07,79.997 15.938,77.817 15.461,75.176 18.111,74.702 18.115,74.7 						"/>
					</g>
				</g>
				<polygon fill="#FFFFFF" points="23.425,73.764 28.73,72.809 25.598,70.627 22.956,71.095 22.956,71.1 23.415,73.765 				"/>
			</g>
		</g>
		<path fill="#FFFFFF" d="M37.904,93.107l6.525-9.375l3.166,2.202c1.276,0.89,2.154,1.785,2.632,2.686
			c0.477,0.901,0.677,1.875,0.599,2.925c-0.081,1.05-0.424,2.014-1.036,2.892c-0.436,0.627-0.976,1.144-1.617,1.55
			c-0.64,0.403-1.337,0.668-2.087,0.79c-0.768,0.13-1.535,0.1-2.299-0.094c-0.451-0.107-0.841-0.24-1.17-0.398
			c-0.328-0.159-0.909-0.529-1.742-1.108L37.904,93.107z M46.623,87.032l-1.681-1.169l-4.861,6.983l1.721,1.198
			c0.673,0.468,1.226,0.784,1.662,0.952c0.437,0.167,0.827,0.265,1.174,0.298c0.348,0.032,0.695,0.017,1.044-0.046
			c1.132-0.211,2.056-0.828,2.769-1.854c0.702-1.009,0.934-2.068,0.695-3.179c-0.085-0.411-0.237-0.806-0.456-1.185
			c-0.219-0.38-0.456-0.694-0.714-0.945C47.718,87.833,47.268,87.481,46.623,87.032z"/>
		<path fill="#FFFFFF" d="M56.68,92.258l0.938,0.653l-2.346,12.285l-1.366-0.95l0.68-3.628l-3.977-2.769l-3.089,1.952l-1.37-0.955
			L56.68,92.258z M54.865,99.049l0.847-4.425l-3.746,2.406L54.865,99.049z"/>
	</g>
</g>
</svg>
